{"title":"Sherlock.The.Abominable.Bride.2016.HDTV.x264.AAC-VYTO [P2PDL]","uid":13122478,"size":377329384,"categoryP":"video","categoryS":"movies","magnet":"?xt=urn:btih:3429565f3a6937d74623b2c928e0e29e87387c40&amp;dn=Sherlock.The.Abominable.Bride.2016.HDTV.x264.AAC-VYTO+%5BP2PDL%5D&amp;tr=udp%3A%2F%2Ftracker.leechers-paradise.org%3A6969&amp;tr=udp%3A%2F%2Fzer0day.ch%3A1337&amp;tr=udp%3A%2F%2Fopen.demonii.com%3A1337&amp;tr=udp%3A%2F%2Ftracker.coppersurfer.tk%3A6969&amp;tr=udp%3A%2F%2Fexodus.desync.com%3A6969","seeders":12,"leechers":5,"uploader":"VYTOP2PDL","files":7,"time":1451728764,"description":"____    ____ ____    ____ .___________.  ______   \r\n     /   /      /   / |           | /  __    \r\n    /   /      /   /  `---|  |----`|  |  |  | \r\n        /     _    _/       |  |     |  |  |  | \r\n       /        |  |         |  |     |  `--'  | \r\n    __/         |__|         |__|      ______/  \r\n                                                  \r\nPresenting Small Encodes with quality for years!\r\n                                                                                                   \r\n                                                                                                   \r\n\r\nSherlock.The.Abominable.Bride.2016.HDRip.480p.x264.AAC-VYTO\r\n\r\n\r\nGenre: Crime, Drama, Mystery \nhttp://www.imdb.com/title/tt3845232/\r\n\r\n\r\nFormat                                   : MPEG-4\r\nFile size                                : 352 MiB\r\nDuration                                 : 1h 28mn\r\nOverall bit rate                         : 555 Kbps\r\n\r\nVide\r\nFormat                                   : AVC\r\nBit rate                                 : 520 Kbps\r\nWidth                                    : 720 pixels\r\nHeight                                   : 400 pixels\r\nDisplay aspect ratio                     : 16:9\r\nFrame rate mode                          : Constant\r\nFrame rate                               : 25.000 fps\r\nBit depth                                : 8 bits\r\nStream size                              : 329 MiB (94%)\r\nWriting library                          : x264 \r\n\r\nAudio\r\nFormat                                   : AAC\r\nBit rate mode                            : Variable\r\nBit rate                                 : 32.0 Kbps\r\nChannel(s)                               : 2 channels \r\nChannel positions                        : Front: L R \r\nSampling rate                            : 48.0 KHz\r\nStream size                              : 20.3 MiB (6%)\r\n\r\nSubtitle                                 : Yes (English)\r\n\r\nScreen Shots: (Click to view)\r\n \nhttp://ititli.com/Zp \nhttp://ititli.com/ZD \nhttp://ititli.com/Za \nhttp://ititli.com/Zb \nhttp://ititli.com/Zz \nhttp://ititli.com/ZI \nhttp://ititli.com/ZO \nhttp://ititli.com/c9 \nhttp://ititli.com/cX\r\n\r\n----------------------------------------------------------------------------------------------------\r\n\r\n\r\nEncoder Notes: Looking For Early Access To Anything You Can Provide WEBDL, DVDScr, DVDR, BluRay,\r\nDirect Audio, Music Releases and Seedboxes. If You Got anything to offer please contact us.\r\n\r\nSupport us by donating BC - 1FgwdzPsd1y25Gea8wP1qni35uGCtmkRCD\r\n\r\nSend some love!\r\nFind us and join us!","torrent":{"xt":"urn:btih:3429565f3a6937d74623b2c928e0e29e87387c40","amp;dn":"Sherlock.The.Abominable.Bride.2016.HDTV.x264.AAC-VYTO+%5BP2PDL%5D","amp;tr":["udp%3A%2F%2Ftracker.leechers-paradise.org%3A6969","udp%3A%2F%2Fzer0day.ch%3A1337","udp%3A%2F%2Fopen.demonii.com%3A1337","udp%3A%2F%2Ftracker.coppersurfer.tk%3A6969","udp%3A%2F%2Fexodus.desync.com%3A6969"],"infoHash":"3429565f3a6937d74623b2c928e0e29e87387c40","infoHashBuffer":{"type":"Buffer","data":[52,41,86,95,58,105,55,215,70,35,178,201,40,224,226,158,135,56,124,64]},"announce":[],"urlList":[]}}